<svg width="66" height="66" viewBox="0 0 66 66" fill="none" xmlns="http://www.w3.org/2000/svg">
<path d="M13.8796 49.3055V59.5923L18.0178 57.1094L31.0251 49.3055H43.9259C46.9387 49.3055 49.3889 46.8554 49.3889 43.8426V21.9907C49.3889 18.9779 46.9387 16.5278 43.9259 16.5278H11.1481C8.13532 16.5278 5.68518 18.9779 5.68518 21.9907V43.8426C5.68518 46.8554 8.13532 49.3055 11.1481 49.3055H13.8796ZM11.1481 21.9907H43.9259V43.8426H29.5119L19.3426 49.9447V43.8426H11.1481V21.9907Z" fill="white"/>
<path d="M54.8519 5.60184H22.0741C19.0613 5.60184 16.6111 8.05198 16.6111 11.0648H49.3889C52.4017 11.0648 54.8519 13.5149 54.8519 16.5278V38.3796C57.8647 38.3796 60.3148 35.9295 60.3148 32.9167V11.0648C60.3148 8.05198 57.8647 5.60184 54.8519 5.60184Z" fill="white"/>
</svg>
