<svg width="182" height="182" viewBox="0 0 182 182" fill="none" xmlns="http://www.w3.org/2000/svg">
<circle cx="91" cy="91" r="91" fill="#F5F5F5"/>
<path d="M90.9999 38.3334C97.984 38.3334 104.682 41.1078 109.62 46.0462C114.559 50.9847 117.333 57.6827 117.333 64.6667C117.333 71.6507 114.559 78.3487 109.62 83.2872C104.682 88.2256 97.984 91 90.9999 91C84.0159 91 77.3179 88.2256 72.3794 83.2872C67.441 78.3487 64.6666 71.6507 64.6666 64.6667C64.6666 57.6827 67.441 50.9847 72.3794 46.0462C77.3179 41.1078 84.0159 38.3334 90.9999 38.3334ZM90.9999 104.167C120.098 104.167 143.667 115.951 143.667 130.5V143.667H38.3333V130.5C38.3333 115.951 61.9016 104.167 90.9999 104.167Z" fill="black"/>
</svg>
