<?xml version="1.0" encoding="utf-8"?>
<svg width="821.00006px" height="399px" viewBox="0 0 821.00006 399" version="1.1" xmlns:xlink="http://www.w3.org/1999/xlink" xmlns="http://www.w3.org/2000/svg">
  <defs>
    <path d="M821 0L821 0L821 399L0 399L0 0L821 0Z" id="path_1" />
    <clipPath id="clip_1">
      <use xlink:href="#path_1" clip-rule="evenodd" fill-rule="evenodd" />
    </clipPath>
  </defs>
  <g id="Frame" clip-path="url(#clip_1)">
    <path d="M821 0L821 0L821 399L0 399L0 0L821 0Z" id="Frame" fill="none" stroke="none" />
    <g id="Logo" transform="translate(61.265594 54.055756)">
      <path d="M106.863 2.52541C107.78 4.63107 107.854 6.77971 107.086 8.97135C106.335 10.7133 104.396 11.2824 102.658 11.7163C100.244 12.3195 97.8068 12.8019 95.3463 13.1636C93.3751 13.4522 91.8767 13.3601 90.3435 12.2793C88.8717 11.2414 88.6322 9.86793 88.3989 7.99494C87.7643 2.88568 88.7878 0.410878 94.2881 0.281919C98.2592 0.187758 101.117 0.0669857 104.298 0.683127C105.417 0.900106 106.272 1.5142 106.863 2.52541L106.863 2.52541Z" id="Shape" fill="#000000" stroke="none" />
      <path d="M53.3403 0.00966766L58.3533 0.00966766C59.4723 -0.0285426 60.5763 0.0465133 61.6653 0.234835C66.4532 1.05772 65.8862 4.94494 65.4072 8.61108C65.1711 10.4329 64.3489 11.7109 62.9406 12.4451C61.563 13.1615 59.9991 13.1881 58.4393 12.92C54.9574 12.3202 52.1141 11.8535 49.2709 10.8177C48.0823 10.3838 47.2703 9.67755 46.835 8.6991C46.0858 6.55523 46.1595 4.42569 47.056 2.31047C47.6592 1.26788 48.5394 0.639455 49.6966 0.425205C50.6887 0.242341 51.9033 0.103829 53.3403 0.00966766L53.3403 0.00966766Z" id="Shape" fill="#000000" stroke="none" />
      <path d="M81.0351 204.86C73.3569 198.95 67.9869 192.187 63.9114 185.894C62.6238 183.909 60.8224 181.42 59.1009 179.135C53.1632 171.254 47.6328 163.684 42.5099 156.424C40.4751 153.542 38.3217 150.146 36.1129 147.069C34.2727 144.51 32.979 142.762 31.9043 140.426C31.7282 140.044 31.761 139.761 31.9637 139.374C32.3594 138.618 32.8309 137.898 33.3782 137.215C34.8206 135.438 36.6533 134.167 38.8764 133.403C39.4919 133.238 40.134 133.096 40.8027 132.977C41.2311 132.901 41.5921 133.026 41.8855 133.352C42.6907 134.25 43.4194 135.207 44.0717 136.224C46.247 139.612 48.4258 142.998 50.6078 146.381C54.2529 152.032 57.7888 157.109 61.2155 161.611C64.0095 165.285 67.6389 169.318 71.5937 172.075C76.3102 175.363 81.9333 175.485 86.1501 171.25C87.1927 170.202 88.0259 169.247 88.6495 168.386C93.3508 161.882 97.9777 155.326 102.53 148.719C105.965 143.732 109.121 138.504 112.405 133.405C112.462 133.317 112.57 133.276 112.669 133.307L115.306 134.105L115.379 134.167C115.415 134.194 115.453 134.216 115.494 134.232C117.619 135.096 119.336 136.422 120.646 138.209C121.23 139.12 121.626 140.067 121.834 141.053C121.847 141.118 121.838 141.179 121.805 141.235C119.391 145.318 117.786 147.915 116.99 149.026C115.078 151.695 113.787 153.544 113.115 154.571C111.056 157.724 108.133 162.645 105.24 166.97C102.881 170.498 100.531 174.032 98.1906 177.573C95.1637 182.15 92.5429 184.752 91.5829 189.945C89.7452 199.846 100.146 202.164 111.855 201.304C122.837 200.497 132.677 197.798 140.236 192.541C145.263 189.024 147.576 185.904 149.776 182.267C152.889 177.123 154.991 171.557 154.654 166.072C154.561 164.547 153.852 163.583 156.735 163.944C162.263 164.637 161.107 172.538 158.734 180.944C156.545 188.699 153.972 194.269 140.778 202.098C127.583 209.928 123.794 210.379 111.235 211.945C98.6766 213.51 88.7136 210.77 81.0351 204.86Z" id="Shape" fill="#000000" stroke="none" />
      <path d="M153.734 52.7993L153.734 57.8369C152.981 77.1071 146.103 95.5422 137.021 112.344C132.399 120.895 126.94 129.517 120.645 138.209C119.335 136.422 117.617 135.096 115.493 134.232C115.452 134.216 115.414 134.194 115.378 134.167L115.304 134.105C122.89 123.66 129.409 112.624 134.861 100.995C139.891 90.2733 143.712 78.8696 145.391 67.1465C146.569 58.9177 146.506 50.699 145.203 42.4907C142.703 26.7617 134.173 13.5627 117.703 9.9662C114.225 9.20745 110.686 8.87584 107.086 8.97136C107.854 6.77973 107.78 4.63108 106.863 2.52542C114.492 1.79261 122.117 2.76492 129.044 5.84767C141.733 11.4953 148.936 24.0556 151.814 37.1173C152.95 42.2744 153.59 47.5017 153.734 52.7993L153.734 52.7993Z" id="Shape" fill="#A8A8A8" stroke="none" />
      <path d="M47.056 2.31047C46.1595 4.42569 46.0858 6.55523 46.835 8.6991C35.6769 8.17712 24.4164 11.6038 17.209 20.5573C12.1325 26.864 9.42232 34.665 8.32104 42.5889C7.15017 51.0061 7.24638 59.3475 8.60966 67.6132C10.4335 78.6812 14.2061 89.5241 18.9858 99.7303C24.5263 111.559 31.1565 122.783 38.8763 133.403C36.6533 134.167 34.8206 135.438 33.3781 137.215C19.6122 117.973 7.33849 96.5637 2.15349 73.2445C0.177474 64.351 -0.438669 55.36 0.305067 46.2714C1.42067 32.6426 5.97111 18.7027 16.9429 9.82494C25.3355 3.03511 36.5346 1.12323 47.056 2.31047L47.056 2.31047Z" id="Shape" fill="#A8A8A8" stroke="none" />
      <g id="Text" transform="translate(153.7344 70.944244)">
        <g id="italEase">
          <path d="M5.4 57.75C9.3 57.75 12.45 54.6 12.45 50.7C12.45 46.95 9.3 43.8 5.4 43.8C1.65 43.8 -1.5 46.95 -1.5 50.7C-1.5 54.6 1.65 57.75 5.4 57.75ZM43.05 112.5Q41.7 111.15 39.9 111.15C38.85 111.15 37.65 111.6 36.9 112.35C20.55 127.95 15.3 127.5 14.1 127.05C9.3 124.95 9.15 106.05 9 90.75C8.85 84 8.85 77.25 8.55 70.05C8.4 67.65 6.3 65.7 3.9 65.85C1.5 66 -0.45 67.95 -0.3 70.5C0 77.4 0 84.3 0.15 90.9C0.3 114.15 0.45 130.95 10.65 135.15Q12.675 136.05 15.15 136.05C21.9 136.05 30.6 130.5 42.9 118.65C44.7 117 44.85 114.15 43.05 112.5ZM85.95 113.1C85.05 112.05 83.85 111.6 82.5 111.6C81.6 111.6 80.55 111.9 79.65 112.65C58.35 130.65 51.3 131.55 49.05 130.35C43.65 127.8 44.1 106.95 44.55 84.75C49.05 87.3 55.2 88.2 63.9 87.6C66.3 87.45 68.1 85.35 67.95 82.95C67.8 80.4 65.7 78.6 63.3 78.75C55.35 79.35 50.1 78.3 47.55 76.05C45.9 74.4 45.15 71.7 44.85 68.1Q44.85 59.775 44.85 51.45Q44.85 51 44.85 50.55C44.85 50.1 44.85 49.8 44.85 49.35C44.55 47.25 43.8 45 40.5 45C38.1 45 36 46.8 36 49.35C36 52.05 36 54.6 35.85 57.15C35.85 61.05 35.7 64.8 36 68.25C35.85 73.8 35.85 79.2 35.7 84C34.95 114.75 34.65 133.35 45.3 138.45C46.8 139.2 48.6 139.5 50.55 139.5C58.35 139.5 69 133.2 85.35 119.4C87.3 117.75 87.45 115.05 85.95 113.1ZM147.15 108.3C146.4 107.85 145.5 107.55 144.75 107.55C143.25 107.55 141.9 108.3 141 109.5C135.9 116.85 129.45 123.75 126.6 124.95C126.15 123.45 125.25 119.1 127.2 107.25C128.1 100.65 128.55 97.05 128.4 94.95C128.1 91.05 125.55 90 124.5 89.7C120.6 88.95 118.95 91.95 115.8 97.5C113.55 101.7 110.4 107.4 106.65 111.75C95.25 125.1 90.3 124.65 89.7 124.5C88.65 124.35 88.05 122.85 87.6 121.65C84.9 113.1 89.25 94.2 98.4 84.45C102 80.4 108.75 76.2 115.5 76.95C120.45 77.55 124.5 80.85 127.65 86.7C128.4 88.2 130.05 89.1 131.55 89.1C132.3 89.1 133.05 88.95 133.65 88.5C135.9 87.3 136.65 84.6 135.45 82.5C129.75 72 122.1 68.85 116.55 68.25C106.5 66.9 97.2 72.6 91.8 78.3C80.25 91.05 75.6 113.1 79.2 124.5C81.3 130.95 85.65 132.75 88.05 133.2C94.95 134.55 103.2 129.45 113.4 117.45C114.9 115.65 116.25 113.85 117.6 111.9C116.25 124.8 117.9 131.4 123.15 133.5Q124.5 133.95 125.85 133.95C133.65 133.95 143.1 122.1 148.2 114.45C149.55 112.5 149.1 109.65 147.15 108.3ZM190.2 112.8Q188.85 111.45 187.05 111.45C186 111.45 184.95 111.9 184.05 112.65C166.95 129 159.9 129.45 157.2 128.25C148.2 124.35 148.65 91.95 149.25 60.6C149.4 49.65 149.55 38.4 149.4 26.7C149.4 24.3 147.45 22.35 145.05 22.35C142.5 22.35 140.55 24.45 140.55 26.85C140.7 38.25 140.55 49.65 140.4 60.6C139.65 100.95 139.2 130.05 153.6 136.5C155.4 137.25 157.35 137.55 159.3 137.55C167.25 137.55 177 131.7 190.2 119.1C191.85 117.45 192 114.6 190.2 112.8ZM285.9 90.45C285.15 90 284.25 89.7 283.35 89.7C282 89.7 280.65 90.3 279.75 91.65C269.1 107.25 245.25 125.25 225.3 125.25C220.05 125.25 215.55 123.9 212.25 121.2C208.95 118.5 207.45 114.6 208.05 110.7C210.3 96.15 224.55 91.2 232.2 88.5C234.75 87.6 236.4 87.15 237.45 86.25C238.65 85.35 239.4 84 239.55 82.5C239.7 79.35 237.3 76.8 231.9 71.4C222.45 61.8 206.7 45.75 209.85 28.65C212.1 16.8 223.65 11.55 234.6 11.55C242.55 11.55 250.8 14.1 257.85 19.05C258.6 19.5 259.5 19.8 260.4 19.8C261.75 19.8 263.1 19.2 264 18C265.35 16.05 264.9 13.2 262.95 11.85C254.55 5.84999 244.5 2.55 234.6 2.55C219.3 2.55 204.3 10.8 201.15 27C197.1 48.6 215.55 67.5 225.6 77.55C226.5 78.45 227.55 79.5 228.45 80.55C220.05 83.4 202.35 90.3 199.35 109.35C198.15 116.4 200.85 123.15 206.55 127.95C211.5 132 217.95 134.1 225.3 134.1C230.55 134.1 236.25 133.05 242.25 130.8C268.35 121.5 282.3 103.8 287.1 96.6C288.45 94.5 287.85 91.8 285.9 90.45ZM343.95 108.3C343.2 107.85 342.3 107.55 341.55 107.55C340.05 107.55 338.7 108.3 337.8 109.5C332.7 116.85 326.25 123.75 323.4 124.95C322.95 123.45 322.05 119.1 324 107.25C324.9 100.65 325.35 97.05 325.2 94.95C324.9 91.05 322.35 90 321.3 89.7C317.4 88.95 315.75 91.95 312.6 97.5C310.35 101.7 307.2 107.4 303.45 111.75C292.05 125.1 287.1 124.65 286.5 124.5C285.45 124.35 284.85 122.85 284.4 121.65C281.7 113.1 286.05 94.2 295.2 84.45C298.8 80.4 305.55 76.2 312.3 76.95C317.25 77.55 321.3 80.85 324.45 86.7C325.2 88.2 326.85 89.1 328.35 89.1C329.1 89.1 329.85 88.95 330.45 88.5C332.7 87.3 333.45 84.6 332.25 82.5C326.55 72 318.9 68.85 313.35 68.25C303.3 66.9 294 72.6 288.6 78.3C277.05 91.05 272.4 113.1 276 124.5C278.1 130.95 282.45 132.75 284.85 133.2C291.75 134.55 300 129.45 310.2 117.45C311.7 115.65 313.05 113.85 314.4 111.9C313.05 124.8 314.7 131.4 319.95 133.5Q321.3 133.95 322.65 133.95C330.45 133.95 339.9 122.1 345 114.45C346.35 112.5 345.9 109.65 343.95 108.3ZM415.8 116.4C414.9 115.05 413.4 114.3 411.9 114.3C411.15 114.3 410.4 114.45 409.65 114.9C401.1 120.15 392.4 120.9 384 119.85C382.5 110.1 365.4 103.65 361.5 102.3C348.6 97.8 342.9 91.65 344.55 83.85C345.9 77.85 353.55 72.75 361.5 72.75C366.15 72.75 374.4 74.7 377.1 87.3C377.7 89.7 379.95 91.2 382.35 90.75C384.75 90.15 386.25 87.9 385.8 85.5C382.95 72 373.95 63.9 361.5 63.9C349.35 63.9 338.1 71.85 335.85 82.05C334.35 89.25 335.25 102.6 358.65 110.7C364.35 112.65 368.7 115.05 371.55 117.15C369.6 116.55 367.5 115.95 365.55 115.35C361.35 114.15 357.75 113.55 354.9 113.55C348.6 113.55 345.15 116.1 343.5 117.9C340.95 120.75 340.2 124.65 341.85 128.4C344.55 135 352.05 137.55 358.65 137.55C365.1 137.55 376.35 135.45 381.45 128.4C384.3 128.85 387.3 129.15 390.3 129.15C398.1 129.15 406.2 127.35 414.3 122.55C416.4 121.2 417 118.5 415.8 116.4ZM357.9 128.7C352.8 128.4 350.55 126.3 349.95 124.95C349.65 124.2 349.95 124.05 350.1 123.9C350.55 123.3 352.2 122.55 355.05 122.55C357 122.55 359.7 122.85 363.15 123.9C365.55 124.65 368.1 125.4 370.65 126C366.75 128.1 361.2 128.85 357.9 128.7ZM475.05 113.4C474.3 112.05 472.8 111.15 471.15 111.15C470.4 111.15 469.65 111.45 468.9 111.9C458.55 118.35 442.2 126.9 429.6 126.9C425.25 126.9 421.2 125.85 418.8 122.7C416.55 119.7 415.8 115.05 416.55 109.65C437.1 104.85 459.6 95.85 456.3 80.4C454.5 72.15 448.95 70.05 445.8 69.6C435 67.8 420.9 78.45 414.45 89.55C407.55 101.4 404.1 118.05 411.75 128.1C414.75 131.85 420 135.75 429.6 135.75C444.15 135.75 461.55 126.75 473.55 119.4C475.65 118.2 476.4 115.5 475.05 113.4ZM422.1 93.9C427.5 84.75 437.7 78.15 443.4 78.15C443.7 78.15 444 78.3 444.3 78.3C445.2 78.45 446.85 78.75 447.6 82.35C448.8 88.05 437.7 94.8 419.25 99.9C420 97.95 421.05 95.85 422.1 93.9Z" />
        </g>
      </g>
      <g id="Text" transform="translate(250.1344 221.94424)">
        <g id="HEALTHCARE">
          <path d="M27.04 37.28L27.04 9.28L20.88 9.28L20.88 20.36L9.52 20.36L9.52 9.28L3.36 9.28L3.36 37.28L9.52 37.28L9.52 26.04L20.88 26.04L20.88 37.28L27.04 37.28ZM62.48 37.28L62.48 31.8L47.28 31.8L47.28 25.92L60.48 25.92L60.48 20.44L47.28 20.44L47.28 14.76L62.28 14.76L62.28 9.28L41.16 9.28L41.16 37.28L62.48 37.28ZM102.64 37.28L90.64 9.08L84.96 9.08L72.96 37.28L79.24 37.28L81.8 31L93.64 31L96.2 37.28L102.64 37.28ZM91.44 25.56L84 25.56L87.72 16.48L91.44 25.56ZM134.48 37.28L134.48 31.68L120.52 31.68L120.52 9.28L114.36 9.28L114.36 37.28L134.48 37.28ZM163.72 14.96L163.72 9.28L140.52 9.28L140.52 14.96L149.04 14.96L149.04 37.28L155.2 37.28L155.2 14.96L163.72 14.96ZM199.52 37.28L199.52 9.28L193.36 9.28L193.36 20.36L182 20.36L182 9.28L175.84 9.28L175.84 37.28L182 37.28L182 26.04L193.36 26.04L193.36 37.28L199.52 37.28ZM238.24 32.76L234.32 28.8C232.12 30.8 230.16 32.08 226.96 32.08C222.16 32.08 218.84 28.08 218.84 23.28L218.84 23.2C218.84 18.4 222.24 14.48 226.96 14.48C229.76 14.48 231.96 15.68 234.12 17.64L238.04 13.12C235.44 10.56 232.28 8.8 227 8.8C218.4 8.8 212.4 15.32 212.4 23.28L212.4 23.36C212.4 31.4 218.52 37.76 226.76 37.76C232.16 37.76 235.36 35.84 238.24 32.76ZM277.84 37.28L265.84 9.08L260.16 9.08L248.16 37.28L254.44 37.28L257 31L268.84 31L271.4 37.28L277.84 37.28ZM266.64 25.56L259.2 25.56L262.92 16.48L266.64 25.56ZM313.76 37.28L306.92 27.28C310.48 25.96 312.92 23.12 312.92 18.6L312.92 18.52C312.92 12.76 308.96 9.28 302.36 9.28L289.56 9.28L289.56 37.28L295.72 37.28L295.72 28.32L300.56 28.32L306.56 37.28L313.76 37.28ZM306.68 18.92C306.68 21.28 304.96 22.88 301.96 22.88L295.72 22.88L295.72 14.84L301.84 14.84C304.84 14.84 306.68 16.2 306.68 18.84L306.68 18.92ZM347.2 37.28L347.2 31.8L332 31.8L332 25.92L345.2 25.92L345.2 20.44L332 20.44L332 14.76L347 14.76L347 9.28L325.88 9.28L325.88 37.28L347.2 37.28Z" />
        </g>
      </g>
      <path d="M496.797 172.944C496.797 172.944 492.324 180.165 491.521 181.394C490.718 182.623 498.098 185.5 498.098 185.5L504.297 177.944L496.797 172.944Z" id="Vector" fill="#000000" fill-rule="evenodd" stroke="#000000" stroke-width="1" />
      <path d="M363.651 162.099C363.651 162.099 339.23 182.834 337.853 184.227C336.475 185.62 341.778 191.391 341.778 191.391L354.426 179.52L363.651 162.099Z" id="Vector-Copy" fill="#000000" fill-rule="evenodd" stroke="#000000" stroke-width="1" />
      <path d="M621.96 183.845C634.202 176.148 681.154 158.525 671.735 234.945C671.045 240.704 670.697 243.699 670.204 247.326C668.361 260.892 657.101 261.206 660.143 245.233C663.185 229.261 674.877 166.706 621.592 193.145" id="Vector-2" fill="#000000" fill-rule="evenodd" stroke="#000000" stroke-width="1" />
      <g id="Group-2" transform="translate(618.65515 200.78986)">
        <path d="M74.1177 43.9692C74.1177 27.1868 60.5129 13.582 43.7305 13.582C26.9481 13.582 13.3433 27.1868 13.3433 43.9692C13.3433 60.7516 26.9481 74.3564 43.7305 74.3564C60.5129 74.3564 74.1177 60.7516 74.1177 43.9692" id="Shape" fill="none" fill-rule="evenodd" stroke="#9A9A9A" stroke-width="2" />
        <path d="M69.4633 43.9691C69.4702 29.7699 57.9549 18.2433 43.7431 18.2364C36.9162 18.2331 30.3677 20.9427 25.5392 25.7689C20.7106 30.5951 17.9978 37.1422 17.9978 43.9691C17.9978 58.1809 29.5187 69.7018 43.7305 69.7018C57.9423 69.7018 69.4633 58.1809 69.4633 43.9691" id="Shape" fill="none" fill-rule="evenodd" stroke="#878787" stroke-width="2" />
        <path d="M86.8649 48.2897C85.9613 56.2552 83.0835 63.4694 78.2316 69.9324C64.4868 87.6321 39.4696 92.6721 20.3827 80.4258C8.1218 72.5584 1.32758 61.07 0 45.9605L0 41.0358C1.24013 23.0022 13.0134 7.5204 30.3594 2.03123C49.013 -3.87132 69.4593 3.3906 80.1276 19.9138C85.5757 28.3535 87.8215 37.8122 86.8649 48.2897L86.8649 48.2897Z" id="Shape-Path" fill="none" fill-rule="evenodd" stroke="none" />
        <path d="M74.1177 43.9692C74.1177 27.1868 60.5129 13.582 43.7305 13.582C26.9481 13.582 13.3433 27.1868 13.3433 43.9692C13.3433 60.7516 26.9481 74.3564 43.7305 74.3564C60.5129 74.3564 74.1177 60.7516 74.1177 43.9692L74.1177 43.9692Z" id="Shape-Path" fill="none" fill-rule="evenodd" stroke="none" />
        <path d="M74.1177 43.9692C74.1177 60.7516 60.5129 74.3564 43.7305 74.3564C26.9481 74.3564 13.3433 60.7516 13.3433 43.9692C13.3433 27.1868 26.9481 13.582 43.7305 13.582C60.5129 13.582 74.1177 27.1868 74.1177 43.9692L74.1177 43.9692Z" id="Shape-Path" fill="none" fill-rule="evenodd" stroke="none" />
        <path d="M69.4633 43.9691C69.4702 29.7699 57.9549 18.2433 43.7431 18.2364C36.9162 18.2331 30.3677 20.9427 25.5392 25.7689C20.7106 30.5951 17.9978 37.1422 17.9978 43.9691C17.9978 58.1809 29.5187 69.7018 43.7305 69.7018C57.9423 69.7018 69.4633 58.1809 69.4633 43.9691L69.4633 43.9691Z" id="Shape-Path" fill="none" fill-rule="evenodd" stroke="none" />
        <path d="M17.9978 43.9691C17.9978 29.7573 29.5187 18.2364 43.7305 18.2364C57.9423 18.2364 69.4633 29.7573 69.4633 43.9691C69.4633 58.1809 57.9423 69.7019 43.7305 69.7019C29.5187 69.7019 17.9978 58.1809 17.9978 43.9691Z" id="Circle" fill="#666666" fill-rule="evenodd" stroke="none" />
      </g>
    </g>
  </g>
</svg>